<svg id="Слой_1" data-name="Слой 1" xmlns="http://www.w3.org/2000/svg" viewBox="0 0 255.23 58.67"><defs><style>.cls-1{fill:#035f90;}</style></defs><path class="cls-1" d="M.14,46.47c0-2.76,0-5.52,0-8.28C.12,36.3,0,34.41,0,32.53a15.18,15.18,0,0,1,1-5.41,11.88,11.88,0,0,1,.88-1.79,26.56,26.56,0,0,1,1.6-2.46A20.44,20.44,0,0,1,5,21.26a2.09,2.09,0,0,0,.41-.53.69.69,0,0,0,0-.51c-.29-.63-.68-1.22-.93-1.86a9.93,9.93,0,0,1-.65-4.94A10.2,10.2,0,0,1,4.9,9.71,9.2,9.2,0,0,1,6.5,7.48,11.13,11.13,0,0,1,9.12,5.41,11.45,11.45,0,0,1,13,4.19a10.21,10.21,0,0,1,4.15.39c.38.1.74.27,1.12.41a1.16,1.16,0,0,0,.51.14c.12,0,.2-.24.3-.36.47-.56.91-1.15,1.42-1.66a10,10,0,0,1,1.57-1.33A9.68,9.68,0,0,1,25.93.22,9.19,9.19,0,0,1,28,0,15.57,15.57,0,0,1,31,.55a9,9,0,0,1,2.3,1.06,10.31,10.31,0,0,1,2.5,2.14,10.24,10.24,0,0,1,1.16,1.8,11.23,11.23,0,0,1,.79,1.77,9.76,9.76,0,0,1,.46,3.83A8.55,8.55,0,0,1,37.59,14c-.24.59-.54,1.16-.83,1.72a8.51,8.51,0,0,1-2,2.48c-.23.21-.14.56.18.83a16.53,16.53,0,0,1,1.26,1.1,31.29,31.29,0,0,1,2.12,2.34,22.21,22.21,0,0,1,1.59,2.44,13.44,13.44,0,0,1,1,2.06,14,14,0,0,1,.65,2.49c.58,3.59.18,7.21.2,10.82,0,4.92-.08,9.85-.12,14.78l0,.42c0,.47,0,.47-.5.47s-1.16,0-1.74,0c-.28,0-.38-.06-.34-.37A14.07,14.07,0,0,0,39,54c0-2,0-4,0-5.95l.09-12.2c0-1.22,0-2.44,0-3.65a12.06,12.06,0,0,0-.48-3.64,16.86,16.86,0,0,0-1.2-2.63,11.94,11.94,0,0,0-2-2.75c-.7-.69-1.36-1.43-2.05-2.13-.31-.32-.65-.6-1-.91A.42.42,0,0,0,31.9,20a10.24,10.24,0,0,1-5.12.81,11.85,11.85,0,0,1-2-.44c-.43-.11-.85-.29-1.28-.43a.51.51,0,0,0-.63.24,14,14,0,0,1-.95,1.24c-.31.38-.29.59.15.8a12.68,12.68,0,0,1,1.66,1,6.81,6.81,0,0,1,1.65,1.56,8.72,8.72,0,0,1,1.34,2.63,8.22,8.22,0,0,1-.26,5.66,6.76,6.76,0,0,1-1.26,2,5.25,5.25,0,0,0-.61.73.48.48,0,0,0,0,.42c.46.58,1,1.11,1.42,1.7a19.81,19.81,0,0,1,1.12,1.74,20.47,20.47,0,0,1,1,1.84,9.35,9.35,0,0,1,.9,3.54c0,2.78,0,5.55,0,8.32,0,.71,0,1.42,0,2.14,0,.3-.1.42-.41.41-.65,0-1.3,0-1.94,0-.22,0-.31-.06-.31-.3,0-1.84,0-3.69,0-5.53,0-.56.07-1.12.06-1.68,0-.94,0-1.9-.12-2.84a10.22,10.22,0,0,0-.71-3c-.32-.73-.65-1.45-1-2.15a6.18,6.18,0,0,0-.67-.94c-.42-.5-.88-1-1.26-1.5a1,1,0,0,0-1.32-.29,6.69,6.69,0,0,1-3.65.34c-.44-.08-.87-.17-1.3-.28a.71.71,0,0,0-.75.21A11.32,11.32,0,0,0,14,40a18.29,18.29,0,0,0-1.17,2.13,13.64,13.64,0,0,0-.63,2.12,12.67,12.67,0,0,0-.28,3.31l0,8.06c0,.22-.07.3-.3.3-.62,0-1.25,0-1.87,0-.46,0-.48,0-.48-.47,0-2.57-.06-5.14-.07-7.7,0-1,0-2,.07-2.91a16,16,0,0,1,.48-2.13,9.88,9.88,0,0,1,1.09-2.62c.34-.58.73-1.15,1.13-1.7s.94-1.23,1.41-1.85a.38.38,0,0,0,0-.55c-.38-.38-.76-.76-1.11-1.16a4.67,4.67,0,0,1-.59-.88c-.21-.38-.36-.79-.54-1.18a6.52,6.52,0,0,1-.52-2.38,8,8,0,0,1,.83-4.23c.16-.31.34-.6.51-.9s.09-.46-.25-.57c-.7-.24-1.41-.45-2.09-.74a9.23,9.23,0,0,1-1.31-.78,7.32,7.32,0,0,0-.76-.52.53.53,0,0,0-.49.06,7.68,7.68,0,0,0-.71.79,8.24,8.24,0,0,1-.56.62A10.62,10.62,0,0,0,4,26.73a9.75,9.75,0,0,0-1.08,3,13.91,13.91,0,0,0-.28,2.4c0,3.24.07,6.47.11,9.71,0,.47,0,1,0,1.42q0,6.2.08,12.39c0,.27-.09.33-.34.33-.68,0-1.36,0-2,0-.26,0-.27-.12-.27-.32V46.47ZM21.83,14.58a7.75,7.75,0,1,0-15.49,0,7.75,7.75,0,0,0,15.49,0Zm6,3.68a10.6,10.6,0,0,0,1.5-.18,11,11,0,0,0,2-.71A9.58,9.58,0,0,0,33,16.28a6.69,6.69,0,0,0,1.6-2,5,5,0,0,0,.49-1,8.61,8.61,0,0,0,.2-4.85,6.36,6.36,0,0,0-1-2.12,6.84,6.84,0,0,0-.77-1.06A11.68,11.68,0,0,0,31.7,3.77a8.42,8.42,0,0,0-1.95-.83,7.35,7.35,0,0,0-4.45.14,7.41,7.41,0,0,0-2.86,1.71,11.27,11.27,0,0,0-1.17,1.4c-.14.19-.34.47-.07.73A12,12,0,0,1,22.88,9a9.6,9.6,0,0,1,1.25,2.7,10.16,10.16,0,0,1,.27,4.35c0,.33-.11.66-.15,1a.48.48,0,0,0,.36.55A8.2,8.2,0,0,0,27.79,18.26Zm-9,17.27a5.65,5.65,0,0,0,5.73-5.68,5.72,5.72,0,1,0-11.44.08A5.61,5.61,0,0,0,18.83,35.53Z"/><path class="cls-1" d="M66.3.9a2.8,2.8,0,0,1,1.25,1A2.92,2.92,0,0,1,68,3.55a2.91,2.91,0,0,1-.44,1.6,2.76,2.76,0,0,1-1.25,1,4.77,4.77,0,0,1-1.92.36H62.47V9H60.89V.53h3.49A4.6,4.6,0,0,1,66.3.9Zm-.43,3.89a1.52,1.52,0,0,0,.53-1.24,1.54,1.54,0,0,0-.53-1.25,2.44,2.44,0,0,0-1.56-.44H62.47V5.23h1.84A2.38,2.38,0,0,0,65.87,4.79Z"/><path class="cls-1" d="M70.4,8.67a3,3,0,0,1-1.23-1.18,3.3,3.3,0,0,1-.44-1.71,3.25,3.25,0,0,1,.44-1.71A3.11,3.11,0,0,1,70.4,2.89a3.94,3.94,0,0,1,3.54,0,3.11,3.11,0,0,1,1.23,1.18,3.26,3.26,0,0,1,.45,1.71,3.31,3.31,0,0,1-.45,1.71,3,3,0,0,1-1.23,1.18,3.94,3.94,0,0,1-3.54,0Zm3.15-1.43a2,2,0,0,0,.54-1.46,2,2,0,0,0-.54-1.47,1.88,1.88,0,0,0-1.39-.56,1.84,1.84,0,0,0-1.37.56,2,2,0,0,0-.54,1.47,2,2,0,0,0,.54,1.46,1.84,1.84,0,0,0,1.37.56A1.88,1.88,0,0,0,73.55,7.24Z"/><path class="cls-1" d="M78.24,8.67A3.13,3.13,0,0,1,77,7.49a3.31,3.31,0,0,1-.45-1.71A3.26,3.26,0,0,1,77,4.07a3.2,3.2,0,0,1,1.24-1.18,3.81,3.81,0,0,1,1.81-.42,3.46,3.46,0,0,1,1.67.39A2.54,2.54,0,0,1,82.81,4l-1.16.68A1.86,1.86,0,0,0,81,4,1.89,1.89,0,0,0,80,3.75a2,2,0,0,0-1.41.55,2,2,0,0,0-.56,1.48,2,2,0,0,0,.56,1.47A1.91,1.91,0,0,0,80,7.8,1.89,1.89,0,0,0,81,7.57a1.86,1.86,0,0,0,.7-.67l1.16.68a2.64,2.64,0,0,1-1.1,1.12,3.42,3.42,0,0,1-1.66.39A3.86,3.86,0,0,1,78.24,8.67Z"/><path class="cls-1" d="M85.18,8.67a3.16,3.16,0,0,1-1.25-1.18,3.4,3.4,0,0,1-.44-1.71,3.35,3.35,0,0,1,.44-1.71,3.23,3.23,0,0,1,1.25-1.18A3.78,3.78,0,0,1,87,2.47a3.46,3.46,0,0,1,1.67.39A2.59,2.59,0,0,1,89.75,4l-1.17.68A1.77,1.77,0,0,0,87.89,4a2,2,0,0,0-2.32.32A2,2,0,0,0,85,5.78a2,2,0,0,0,.55,1.47,2,2,0,0,0,2.33.32,1.77,1.77,0,0,0,.69-.67l1.17.68a2.64,2.64,0,0,1-1.1,1.12A3.42,3.42,0,0,1,87,9.09,3.86,3.86,0,0,1,85.18,8.67Z"/><path class="cls-1" d="M91.08,2.54h1.51V6.81l3.57-4.27h1.39V9H96V4.75L92.47,9H91.08Z"/><path class="cls-1" d="M99.58,2.54h1.51V6.81l3.57-4.27h1.39V9h-1.52V4.75L101,9H99.58Zm1.64-1.21A1.75,1.75,0,0,1,100.69,0h1a1,1,0,0,0,.27.69,1,1,0,0,0,.73.25,1.05,1.05,0,0,0,.74-.25,1,1,0,0,0,.28-.69h1a1.75,1.75,0,0,1-.53,1.33,2.24,2.24,0,0,1-1.5.45A2.2,2.2,0,0,1,101.22,1.33Z"/><path class="cls-1" d="M109.22,8.67A3.09,3.09,0,0,1,108,7.49a3.31,3.31,0,0,1-.45-1.71A3.26,3.26,0,0,1,108,4.07a3.2,3.2,0,0,1,1.24-1.18A3.81,3.81,0,0,1,111,2.47a3.47,3.47,0,0,1,1.68.39A2.52,2.52,0,0,1,113.78,4l-1.16.68a1.86,1.86,0,0,0-.7-.67,1.89,1.89,0,0,0-.91-.23,2,2,0,0,0-1.41.55,2,2,0,0,0-.55,1.48,2,2,0,0,0,.55,1.47A2,2,0,0,0,111,7.8a1.89,1.89,0,0,0,.91-.23,1.86,1.86,0,0,0,.7-.67l1.16.68a2.62,2.62,0,0,1-1.09,1.12,3.46,3.46,0,0,1-1.67.39A3.79,3.79,0,0,1,109.22,8.67Z"/><path class="cls-1" d="M117.8,6.42h-1.17V9h-1.52V2.54h1.52V5.16h1.21l1.91-2.62h1.62L119,5.65,121.53,9h-1.78Z"/><path class="cls-1" d="M122.6,2.54h1.51V6.81l3.57-4.27h1.38V9h-1.51V4.75L124,9H122.6Z"/><path class="cls-1" d="M131.1,2.54h1.51V6.81l3.57-4.27h1.38V9h-1.51V4.75L132.49,9H131.1Zm1.64-1.21A1.71,1.71,0,0,1,132.21,0h1a.9.9,0,0,0,.27.69,1,1,0,0,0,.73.25A1,1,0,0,0,135,.69a.92.92,0,0,0,.29-.69h1a1.72,1.72,0,0,1-.54,1.33,2.2,2.2,0,0,1-1.5.45A2.19,2.19,0,0,1,132.74,1.33Z"/><path class="cls-1" d="M148.86,1.86h-4.2V9h-1.55V.53h5.75Z"/><path class="cls-1" d="M149.38,8.67a3,3,0,0,1-1.23-1.18,3.4,3.4,0,0,1-.44-1.71,3.35,3.35,0,0,1,.44-1.71,3.11,3.11,0,0,1,1.23-1.18,3.67,3.67,0,0,1,1.77-.42,3.74,3.74,0,0,1,1.78.42,3.24,3.24,0,0,1,1.23,1.18,3.35,3.35,0,0,1,.44,1.71,3.4,3.4,0,0,1-.44,1.71,3.17,3.17,0,0,1-1.23,1.18,3.74,3.74,0,0,1-1.78.42A3.67,3.67,0,0,1,149.38,8.67Zm3.15-1.43a2,2,0,0,0,.54-1.46,2,2,0,0,0-.54-1.47,1.88,1.88,0,0,0-1.38-.56,1.85,1.85,0,0,0-1.38.56,2,2,0,0,0-.54,1.47,2,2,0,0,0,.54,1.46,1.85,1.85,0,0,0,1.38.56A1.88,1.88,0,0,0,152.53,7.24Z"/><path class="cls-1" d="M157.23,8.67A3.09,3.09,0,0,1,156,7.49a3.31,3.31,0,0,1-.45-1.71A3.26,3.26,0,0,1,156,4.07a3.2,3.2,0,0,1,1.24-1.18A3.81,3.81,0,0,1,159,2.47a3.47,3.47,0,0,1,1.68.39A2.52,2.52,0,0,1,161.79,4l-1.16.68a1.86,1.86,0,0,0-.7-.67,1.89,1.89,0,0,0-.91-.23,2,2,0,0,0-1.41.55,2,2,0,0,0-.55,1.48,2,2,0,0,0,.55,1.47A1.91,1.91,0,0,0,159,7.8a1.89,1.89,0,0,0,.91-.23,1.86,1.86,0,0,0,.7-.67l1.16.68a2.59,2.59,0,0,1-1.1,1.12,3.42,3.42,0,0,1-1.66.39A3.79,3.79,0,0,1,157.23,8.67Z"/><path class="cls-1" d="M169.14,2.54l-3,7a3.22,3.22,0,0,1-1,1.48,2.48,2.48,0,0,1-1.47.43,3.2,3.2,0,0,1-1-.15,2.29,2.29,0,0,1-.77-.44l.6-1.11a1.82,1.82,0,0,0,.52.32,1.61,1.61,0,0,0,.6.12,1.1,1.1,0,0,0,.66-.2,2,2,0,0,0,.48-.69l.1-.26L162,2.54h1.58l2,4.79,2.05-4.79Z"/><path class="cls-1" d="M176.7,7.73v2.72h-1.42V9h-5v1.44h-1.4V7.73h.3c.41,0,.69-.29.84-.8a10,10,0,0,0,.3-2.17l.08-2.22h5.33V7.73Zm-5.17-1.05A1.91,1.91,0,0,1,171,7.73h3.19V3.83h-2.48l0,1A12.47,12.47,0,0,1,171.53,6.68Z"/><path class="cls-1" d="M182.65,3.15a2.68,2.68,0,0,1,.76,2.07V9H182V8.22a1.79,1.79,0,0,1-.8.65,3.06,3.06,0,0,1-1.24.22,3.13,3.13,0,0,1-1.27-.24,2.06,2.06,0,0,1-.84-.69,1.76,1.76,0,0,1-.3-1,1.72,1.72,0,0,1,.65-1.4,3.22,3.22,0,0,1,2-.53h1.67v-.1a1.32,1.32,0,0,0-.4-1,1.78,1.78,0,0,0-1.21-.36,3.57,3.57,0,0,0-1.07.17,2.6,2.6,0,0,0-.89.47l-.59-1.1A3.47,3.47,0,0,1,179,2.68a5.35,5.35,0,0,1,1.51-.21A3.19,3.19,0,0,1,182.65,3.15Zm-1.38,4.58a1.41,1.41,0,0,0,.62-.74V6.24h-1.56c-.87,0-1.31.28-1.31.86a.77.77,0,0,0,.33.65,1.51,1.51,0,0,0,.91.24A1.9,1.9,0,0,0,181.27,7.73Z"/><path class="cls-1" d="M190.55,2.88A3,3,0,0,1,191.72,4a3.4,3.4,0,0,1,.43,1.74,3.39,3.39,0,0,1-.43,1.73,2.87,2.87,0,0,1-1.17,1.17,3.32,3.32,0,0,1-1.68.41,2.59,2.59,0,0,1-2.07-.87v3.14h-1.52V2.54h1.44v.85a2.27,2.27,0,0,1,.93-.69,3.19,3.19,0,0,1,1.22-.23A3.43,3.43,0,0,1,190.55,2.88Zm-.48,4.36a2,2,0,0,0,.54-1.46,2,2,0,0,0-.54-1.47,1.84,1.84,0,0,0-1.37-.56,2,2,0,0,0-1,.25,1.81,1.81,0,0,0-.69.71,2.17,2.17,0,0,0-.26,1.07A2.16,2.16,0,0,0,187,6.84a1.81,1.81,0,0,0,.69.71,1.88,1.88,0,0,0,1,.25A1.84,1.84,0,0,0,190.07,7.24Z"/><path class="cls-1" d="M194.79,8.67a3.09,3.09,0,0,1-1.25-1.18,3.31,3.31,0,0,1-.45-1.71,3.26,3.26,0,0,1,.45-1.71,3.2,3.2,0,0,1,1.24-1.18,3.81,3.81,0,0,1,1.81-.42,3.47,3.47,0,0,1,1.68.39A2.52,2.52,0,0,1,199.35,4l-1.16.68a1.87,1.87,0,0,0-1.61-.9,1.92,1.92,0,0,0-1.4.55,2,2,0,0,0-.56,1.48,2,2,0,0,0,.55,1.47,2,2,0,0,0,1.41.55,1.87,1.87,0,0,0,1.61-.9l1.16.68a2.62,2.62,0,0,1-1.09,1.12,3.46,3.46,0,0,1-1.67.39A3.79,3.79,0,0,1,194.79,8.67Z"/><path class="cls-1" d="M205.75,3.83h-2.27V9H202V3.83h-2.28V2.54h6.06Z"/><path class="cls-1" d="M212.73,7.19a1.59,1.59,0,0,1-.65,1.35,3.34,3.34,0,0,1-1.94.47h-3.29V2.54H210a3.35,3.35,0,0,1,1.85.44,1.4,1.4,0,0,1,.67,1.23,1.46,1.46,0,0,1-.26.86,1.64,1.64,0,0,1-.74.57A1.5,1.5,0,0,1,212.73,7.19Zm-4.44-1.95h1.58c.79,0,1.18-.27,1.18-.81s-.39-.78-1.18-.78h-1.58Zm3,1.86a.74.74,0,0,0-.29-.64,1.59,1.59,0,0,0-.91-.21h-1.78V7.91H210C210.85,7.91,211.27,7.64,211.27,7.1Z"/><path class="cls-1" d="M220.37,6.26H215.3a1.74,1.74,0,0,0,.7,1.13,2.25,2.25,0,0,0,1.39.42,2.36,2.36,0,0,0,1.76-.7L220,8a2.75,2.75,0,0,1-1.1.79,4.18,4.18,0,0,1-1.5.26,4,4,0,0,1-1.88-.42,3,3,0,0,1-1.25-1.18,3.3,3.3,0,0,1-.44-1.71,3.39,3.39,0,0,1,.43-1.71,3.07,3.07,0,0,1,1.19-1.18,3.51,3.51,0,0,1,1.72-.42,3.39,3.39,0,0,1,1.69.42A3,3,0,0,1,220,4.06a3.57,3.57,0,0,1,.42,1.75Q220.4,6,220.37,6.26ZM215.9,4.11a1.79,1.79,0,0,0-.61,1.15H219a1.82,1.82,0,0,0-.6-1.14,2,2,0,0,0-2.46,0Z"/><path class="cls-1" d="M222.06,2.54h1.51V5.17h3.26V2.54h1.51V9h-1.51V6.45h-3.26V9h-1.51Z"/><path class="cls-1" d="M230.37,2.54h1.52V5.17h3.25V2.54h1.52V9h-1.52V6.45h-3.25V9h-1.52Z"/><path class="cls-1" d="M243.73,5.23a2,2,0,0,1,.65,1.58,2,2,0,0,1-.72,1.64,3.1,3.1,0,0,1-2,.57h-2.93V2.54h1.52V4.66h1.63A2.86,2.86,0,0,1,243.73,5.23Zm-1.22,2.4a1.06,1.06,0,0,0,.35-.85,1,1,0,0,0-.34-.8,1.72,1.72,0,0,0-1-.26l-1.28,0V7.9h1.28A1.55,1.55,0,0,0,242.51,7.63Zm2.71-5.09h1.51V9h-1.51Z"/><path class="cls-1" d="M248.77,2.54h1.51V6.81l3.57-4.27h1.38V9h-1.51V4.75L250.16,9h-1.39Zm1.64-1.21A1.71,1.71,0,0,1,249.88,0h1a.9.9,0,0,0,.27.69,1,1,0,0,0,.73.25,1,1,0,0,0,.73-.25,1,1,0,0,0,.29-.69h1a1.72,1.72,0,0,1-.54,1.33,2.2,2.2,0,0,1-1.5.45A2.19,2.19,0,0,1,250.41,1.33Z"/><path class="cls-1" d="M62.47,23.1a4.19,4.19,0,0,1-1.62-1.56,4.33,4.33,0,0,1-.59-2.24,4.24,4.24,0,0,1,.6-2.24,4.19,4.19,0,0,1,1.62-1.56,4.85,4.85,0,0,1,2.32-.56,4.67,4.67,0,0,1,1.9.37,3.85,3.85,0,0,1,1.46,1l-1,.95a3,3,0,0,0-2.26-1,3.23,3.23,0,0,0-1.57.38,2.73,2.73,0,0,0-1.07,1.06,3.24,3.24,0,0,0,0,3.08,2.73,2.73,0,0,0,1.07,1.06,3.23,3.23,0,0,0,1.57.38,3,3,0,0,0,2.26-1l1,1A4.07,4.07,0,0,1,66.7,23.3a5,5,0,0,1-1.91.36A4.82,4.82,0,0,1,62.47,23.1Z"/><path class="cls-1" d="M70.32,23.2A3.08,3.08,0,0,1,69.1,22a3.31,3.31,0,0,1-.45-1.71,3.26,3.26,0,0,1,.45-1.71,3.15,3.15,0,0,1,1.22-1.18,4,4,0,0,1,3.55,0A3.11,3.11,0,0,1,75.1,18.6a3.25,3.25,0,0,1,.44,1.71A3.3,3.3,0,0,1,75.1,22a3,3,0,0,1-1.23,1.18,4,4,0,0,1-3.55,0Zm3.15-1.43a2.23,2.23,0,0,0,0-2.93,2,2,0,0,0-2.75,0,2.26,2.26,0,0,0,0,2.93,2,2,0,0,0,2.75,0Z"/><path class="cls-1" d="M84.13,22.25V25H82.71V23.54H77V17.07h1.52v5.18h3.08V17.07h1.52v5.18Z"/><path class="cls-1" d="M85.47,17.07H87v4.26l3.57-4.26h1.38v6.47H90.43V19.28l-3.57,4.26H85.47Z"/><path class="cls-1" d="M98.57,17.68a2.68,2.68,0,0,1,.75,2.07v3.79H97.9v-.79a1.79,1.79,0,0,1-.8.65,3.06,3.06,0,0,1-1.24.22,3.13,3.13,0,0,1-1.27-.24,2.06,2.06,0,0,1-.84-.69,1.76,1.76,0,0,1-.3-1,1.71,1.71,0,0,1,.65-1.4,3.22,3.22,0,0,1,2-.53h1.67v-.1a1.32,1.32,0,0,0-.4-1,1.78,1.78,0,0,0-1.21-.36,3.57,3.57,0,0,0-1.07.17,2.6,2.6,0,0,0-.89.47l-.59-1.1a3.39,3.39,0,0,1,1.22-.59A5.3,5.3,0,0,1,96.38,17,3.21,3.21,0,0,1,98.57,17.68Zm-1.38,4.58a1.41,1.41,0,0,0,.62-.74v-.75H96.25c-.87,0-1.31.28-1.31.86a.77.77,0,0,0,.33.65,1.51,1.51,0,0,0,.91.24A1.9,1.9,0,0,0,97.19,22.26Z"/><path class="cls-1" d="M107.06,17.07v6.47h-1.51V18.36h-2.42l-.06,1.28a15.39,15.39,0,0,1-.24,2.15,3.21,3.21,0,0,1-.59,1.37,1.43,1.43,0,0,1-1.15.5,3.25,3.25,0,0,1-.83-.13l.07-1.28a1.11,1.11,0,0,0,.29,0,.75.75,0,0,0,.69-.37,2.29,2.29,0,0,0,.3-.88c0-.34.08-.84.11-1.47l.11-2.5Z"/><path class="cls-1" d="M114.24,19.76a2,2,0,0,1,.66,1.57,2,2,0,0,1-.73,1.65,3.15,3.15,0,0,1-2,.57h-3V17.07h1.51v2.12h1.73A2.89,2.89,0,0,1,114.24,19.76ZM113,22.16a1.06,1.06,0,0,0,.35-.85,1,1,0,0,0-.34-.8,1.72,1.72,0,0,0-1-.26l-1.38,0v2.19l1.38,0A1.61,1.61,0,0,0,113,22.16Z"/><path class="cls-1" d="M116.23,17.07h1.51V19.7H121V17.07h1.51v6.47H121V21h-3.26v2.56h-1.51Z"/><path class="cls-1" d="M129.58,19.76a2,2,0,0,1,.66,1.57,2,2,0,0,1-.72,1.65,3.1,3.1,0,0,1-2,.57h-2.93V17.07h1.51v2.12h1.63A2.82,2.82,0,0,1,129.58,19.76Zm-1.22,2.4a1.06,1.06,0,0,0,.35-.85.93.93,0,0,0-.34-.8,1.7,1.7,0,0,0-1-.26l-1.28,0v2.19l1.28,0A1.57,1.57,0,0,0,128.36,22.16Zm2.71-5.09h1.52v6.47h-1.52Z"/><path class="cls-1" d="M134.62,17.07h1.51v4.26l3.58-4.26h1.38v6.47h-1.52V19.28L136,23.54h-1.39Zm1.64-1.21a1.75,1.75,0,0,1-.53-1.33h1a1,1,0,0,0,.27.69,1,1,0,0,0,.73.25,1,1,0,0,0,.74-.25,1,1,0,0,0,.28-.69h1a1.75,1.75,0,0,1-.53,1.33,2.24,2.24,0,0,1-1.5.45A2.2,2.2,0,0,1,136.26,15.86Z"/><path class="cls-1" d="M153.91,15.06l-3.68,6.84a3.8,3.8,0,0,1-1.16,1.37,2.57,2.57,0,0,1-1.46.45,3.13,3.13,0,0,1-1.25-.27l.39-1.23a3.05,3.05,0,0,0,.83.16,1.5,1.5,0,0,0,1.26-.79l.13-.21-3.38-6.32h1.68l2.51,5,2.58-5Z"/><path class="cls-1" d="M154.59,17.07h1.51V19.7h3.26V17.07h1.51v6.47h-1.51V21H156.1v2.56h-1.51Z"/><path class="cls-1" d="M162.91,17.07h1.51v4.26L168,17.07h1.38v6.47h-1.51V19.28l-3.56,4.26h-1.39Z"/><path class="cls-1" d="M177.29,21.72a1.59,1.59,0,0,1-.65,1.35,3.37,3.37,0,0,1-1.94.47h-3.29V17.07h3.16a3.37,3.37,0,0,1,1.85.44,1.5,1.5,0,0,1,.4,2.09,1.56,1.56,0,0,1-.73.57A1.5,1.5,0,0,1,177.29,21.72Zm-4.44-1.95h1.58c.79,0,1.18-.27,1.18-.81s-.39-.79-1.18-.79h-1.58Zm3,1.86a.72.72,0,0,0-.29-.64,1.53,1.53,0,0,0-.9-.21h-1.78v1.66h1.73C175.41,22.44,175.82,22.17,175.82,21.63Z"/><path class="cls-1" d="M184.93,20.79h-5.07a1.77,1.77,0,0,0,.69,1.13,2.28,2.28,0,0,0,1.4.42,2.36,2.36,0,0,0,1.76-.7l.81.93a2.75,2.75,0,0,1-1.1.79,4.22,4.22,0,0,1-1.5.26A4,4,0,0,1,180,23.2,3,3,0,0,1,178.79,22a3.31,3.31,0,0,1-.45-1.71,3.5,3.5,0,0,1,.43-1.71,3.16,3.16,0,0,1,1.2-1.18,3.47,3.47,0,0,1,1.71-.42,3.36,3.36,0,0,1,1.69.42,3,3,0,0,1,1.17,1.17,3.68,3.68,0,0,1,.41,1.75A4,4,0,0,1,184.93,20.79Zm-4.47-2.15a1.84,1.84,0,0,0-.62,1.15h3.67a1.76,1.76,0,0,0-.59-1.14,1.81,1.81,0,0,0-1.24-.44A1.78,1.78,0,0,0,180.46,18.64Z"/><path class="cls-1" d="M191.89,17.41a3,3,0,0,1,1.16,1.16,3.72,3.72,0,0,1,0,3.47,2.9,2.9,0,0,1-1.16,1.17,3.38,3.38,0,0,1-1.69.41,2.62,2.62,0,0,1-2.07-.87v3.14h-1.52V17.07h1.44v.85a2.27,2.27,0,0,1,.93-.69A3.19,3.19,0,0,1,190.2,17,3.49,3.49,0,0,1,191.89,17.41Zm-.49,4.36a2.26,2.26,0,0,0,0-2.93,1.84,1.84,0,0,0-1.37-.56,2,2,0,0,0-1,.25,1.81,1.81,0,0,0-.69.71,2.31,2.31,0,0,0,0,2.13,1.81,1.81,0,0,0,.69.71,1.88,1.88,0,0,0,1,.25A1.84,1.84,0,0,0,191.4,21.77Z"/><path class="cls-1" d="M196.12,23.2A3.16,3.16,0,0,1,194.87,22a3.31,3.31,0,0,1-.45-1.71,3.26,3.26,0,0,1,.45-1.71,3.2,3.2,0,0,1,1.24-1.18,3.81,3.81,0,0,1,1.81-.42,3.47,3.47,0,0,1,1.68.39,2.52,2.52,0,0,1,1.08,1.11l-1.16.68a1.8,1.8,0,0,0-.7-.67,1.86,1.86,0,0,0-.91-.23,1.92,1.92,0,0,0-1.4.55,2,2,0,0,0-.56,1.48,2,2,0,0,0,.55,1.47,2,2,0,0,0,1.41.55,1.86,1.86,0,0,0,.91-.23,1.8,1.8,0,0,0,.7-.67l1.16.68a2.62,2.62,0,0,1-1.09,1.12,3.46,3.46,0,0,1-1.67.39A3.79,3.79,0,0,1,196.12,23.2Z"/><path class="cls-1" d="M202,17.07h1.51v4.26l3.57-4.26h1.38v6.47H207V19.28l-3.56,4.26H202Z"/><path class="cls-1" d="M215.64,18.36h-2.27v5.18h-1.51V18.36h-2.28V17.07h6.06Z"/><path class="cls-1" d="M222.49,20.79h-5.07a1.77,1.77,0,0,0,.69,1.13,2.3,2.3,0,0,0,1.4.42,2.36,2.36,0,0,0,1.76-.7l.81.93a2.75,2.75,0,0,1-1.1.79,4.22,4.22,0,0,1-1.5.26,4,4,0,0,1-1.88-.42A3,3,0,0,1,216.35,22a3.31,3.31,0,0,1-.45-1.71,3.5,3.5,0,0,1,.43-1.71,3.16,3.16,0,0,1,1.2-1.18,3.48,3.48,0,0,1,1.72-.42,3.33,3.33,0,0,1,1.68.42,3,3,0,0,1,1.17,1.17,3.56,3.56,0,0,1,.41,1.75A4,4,0,0,1,222.49,20.79ZM218,18.64a1.79,1.79,0,0,0-.61,1.15h3.66a1.76,1.76,0,0,0-.59-1.14,2,2,0,0,0-2.46,0Z"/><path class="cls-1" d="M229.05,18.36h-2.26v5.18h-1.51V18.36H223V17.07h6.05Z"/><path class="cls-1" d="M66.91,54.46a10.26,10.26,0,0,1-4.06-3.83,11.05,11.05,0,0,1,0-11,10.33,10.33,0,0,1,4.06-3.83,12.82,12.82,0,0,1,11.61,0,10.47,10.47,0,0,1,4.06,3.83,10.56,10.56,0,0,1-4.06,14.81,12.74,12.74,0,0,1-11.61,0ZM76,50.93a6.09,6.09,0,0,0,2.32-2.35,7.44,7.44,0,0,0,0-6.87A6,6,0,0,0,76,39.36a6.89,6.89,0,0,0-6.63,0,6.05,6.05,0,0,0-2.33,2.35,7.44,7.44,0,0,0,0,6.87,6.12,6.12,0,0,0,2.33,2.35,7,7,0,0,0,6.63,0Z"/><path class="cls-1" d="M100.6,41.6a6.55,6.55,0,0,1,2.65,2.62,8,8,0,0,1,.93,3.91,7.4,7.4,0,0,1-1.11,4A7.25,7.25,0,0,1,100,54.89a10.05,10.05,0,0,1-4.5,1,8.32,8.32,0,0,1-6.55-2.68q-2.39-2.68-2.39-7.86a12.68,12.68,0,0,1,2.09-7.65A10.08,10.08,0,0,1,95,33.92l7.58-1.51.62,4-6.69,1.33a8.08,8.08,0,0,0-4,1.78A5.42,5.42,0,0,0,91,43a6.94,6.94,0,0,1,2.49-1.73,8.81,8.81,0,0,1,7.16.32Zm-2.23,9.52a4.13,4.13,0,0,0,1.08-2.93,3.85,3.85,0,0,0-1.08-2.87,3.89,3.89,0,0,0-2.86-1.07,4,4,0,0,0-2.9,1.07,3.82,3.82,0,0,0-1.09,2.87,4,4,0,0,0,1.12,3,3.86,3.86,0,0,0,2.87,1.13A3.72,3.72,0,0,0,98.37,51.12Z"/><path class="cls-1" d="M131.62,39.58V55.5h-24.3V39.58h4.59V51.71h5.3V39.58h4.59V51.71H127V39.58Zm2.22,12.13v7h-4.29V55.5h-2.63V51.71Z"/><path class="cls-1" d="M151.45,48.84h-12a3.74,3.74,0,0,0,1.53,2.34,5.13,5.13,0,0,0,3,.86,6.06,6.06,0,0,0,2.21-.37A5.42,5.42,0,0,0,148,50.5l2.46,2.66q-2.25,2.58-6.58,2.58a10.39,10.39,0,0,1-4.76-1.05,7.75,7.75,0,0,1-3.2-2.92,8,8,0,0,1-1.12-4.23,8.13,8.13,0,0,1,1.11-4.22,7.75,7.75,0,0,1,3-2.93,9.43,9.43,0,0,1,8.57,0,7.35,7.35,0,0,1,3,2.88,8.64,8.64,0,0,1,1.08,4.37C151.54,47.66,151.51,48.07,151.45,48.84Zm-10.8-5.12a3.74,3.74,0,0,0-1.3,2.43h7.84a3.81,3.81,0,0,0-1.3-2.41,3.86,3.86,0,0,0-2.61-.91A4,4,0,0,0,140.65,43.72Z"/><path class="cls-1" d="M170.42,49.46H168.2v6h-4.55v-6h-2.22l-3.38,6h-5.44l5-8.23L153,39.58h4.88l3.53,6.18h2.28V39.58h4.55v6.18h2.25L174,39.58h4.88l-4.65,7.69,5,8.23H173.8Z"/><path class="cls-1" d="M181.67,39.58h4.59v9.47L194,39.58h4.24V55.5h-4.59V46l-7.73,9.47h-4.26Z"/><path class="cls-1" d="M216.06,43.37h-5.38V55.5h-4.59V43.37H200.7V39.58h15.36Z"/><path class="cls-1" d="M218.52,39.58h4.59v9.47l7.75-9.47h4.23V55.5h-4.58V46l-7.73,9.47h-4.26Z"/><path class="cls-1" d="M253.68,39.58V55.5h-4.11V50.94h-3.41l-3,4.56h-4.92l3.64-5.21a5.42,5.42,0,0,1-2.53-1.88,5,5,0,0,1-.87-3,5.09,5.09,0,0,1,2-4.34,9.13,9.13,0,0,1,5.58-1.52Zm-9.75,4.29a2,2,0,0,0-.75,1.72,2,2,0,0,0,.72,1.73,3.69,3.69,0,0,0,2.21.54h3.46V43.34h-3.41A3.83,3.83,0,0,0,243.93,43.87Z"/></svg>