<svg id="Слой_1" data-name="Слой 1" xmlns="http://www.w3.org/2000/svg" viewBox="0 0 22.74 16"><defs><style>.cls-1{fill:#035f90;}</style></defs><path class="cls-1" d="M0,1.74l.18-.57L7.05,8,.18,14.79,0,14.26Z"/><path class="cls-1" d="M1.15.16,1.88,0a1,1,0,0,1,.24,0h18.5a7.37,7.37,0,0,1,.93.11l.07.15a.51.51,0,0,0-.22.11L12,9.78a.8.8,0,0,1-1.29,0L1.34.37Z"/><path class="cls-1" d="M1.19,15.81,8.05,9,9.86,10.8a2.08,2.08,0,0,0,2.43.43,2.87,2.87,0,0,0,.63-.47c.56-.53,1.09-1.09,1.64-1.63A1.82,1.82,0,0,1,14.7,9l6.9,6.84c-.27.06-.49.12-.72.16a1.38,1.38,0,0,1-.29,0H2.14A2,2,0,0,1,1.19,15.81Z"/><path class="cls-1" d="M22.59,14.85,15.69,8l6.9-6.84a3.85,3.85,0,0,1,.15.78q0,6,0,12.08A4.79,4.79,0,0,1,22.59,14.85Z"/></svg>