<svg id="Слой_1" data-name="Слой 1" xmlns="http://www.w3.org/2000/svg" viewBox="0 0 18.65 24"><defs><style>.cls-1{fill:#035f90;}</style></defs><path class="cls-1" d="M8.84,0a7.72,7.72,0,0,1,8.05,7,9.52,9.52,0,0,1-1.31,5.44,21.27,21.27,0,0,1-4.9,5.79c-.26.23-.54.45-.82.67a.83.83,0,0,1-1.07,0,17.46,17.46,0,0,1-6.49-8,7.85,7.85,0,0,1,1.34-8.2A7,7,0,0,1,8.84,0Zm3.49,7.58a3,3,0,1,0-3,3A3,3,0,0,0,12.33,7.58Z"/><path class="cls-1" d="M9.32,24H1.58A1.44,1.44,0,0,1,.05,22.09q.59-2.68,1.15-5.36a1.41,1.41,0,0,1,1.46-1.2.57.57,0,0,1,.36.18,23.61,23.61,0,0,0,4.65,4.5,2.62,2.62,0,0,0,3.3,0,24.94,24.94,0,0,0,4.46-4.43.52.52,0,0,1,.47-.22,1.41,1.41,0,0,1,1.49,1.2c.41,1.83.82,3.65,1.22,5.48A1.42,1.42,0,0,1,17.16,24Z"/></svg>