<svg id="Слой_1" data-name="Слой 1" xmlns="http://www.w3.org/2000/svg" viewBox="0 0 19.97 20"><defs><style>.cls-1{fill:#035f90;}</style></defs><path class="cls-1" d="M15.8,20a13.43,13.43,0,0,1-4.19-1A19.2,19.2,0,0,1,.65,7.47,11.11,11.11,0,0,1,0,4.29,2.57,2.57,0,0,1,.21,3.21,6,6,0,0,1,2.44.53,3.53,3.53,0,0,1,4,0a1.42,1.42,0,0,1,1.46.7c.56,1,1.09,2,1.62,3a.85.85,0,0,1-.17,1c-.2.21-.44.39-.66.58s-.66.54-1,.83A1.35,1.35,0,0,0,5,7.78,10.18,10.18,0,0,0,6,9.58,22.36,22.36,0,0,0,11,14.35,9.77,9.77,0,0,0,12.2,15a1.36,1.36,0,0,0,1.65-.33c.29-.3.55-.64.83-1s.36-.45.56-.65a.91.91,0,0,1,1.11-.14c.93.5,1.87,1,2.79,1.51a1.57,1.57,0,0,1,.76,1.91,3.62,3.62,0,0,1-.77,1.6,5.85,5.85,0,0,1-2.77,1.95A2,2,0,0,1,16,20Z"/><path class="cls-1" d="M19.53,8.31a5.37,5.37,0,0,1-.05.61,1,1,0,0,1-1,.71,1,1,0,0,1-.88-1A6,6,0,0,0,17,5.94a6.07,6.07,0,0,0-5.2-3.5l-.44,0a1,1,0,0,1-1-1,1,1,0,0,1,1-.93,7.73,7.73,0,0,1,4.07,1.1A8.07,8.07,0,0,1,19.53,8.31Z"/><path class="cls-1" d="M15.46,8.47A1,1,0,0,1,14.2,9.58a1,1,0,0,1-.68-1,2.12,2.12,0,0,0-1.65-2,2.6,2.6,0,0,0-.56-.07,1,1,0,0,1,0-1.94A4.09,4.09,0,0,1,15.46,8.47Z"/></svg>